name rise31.4854peak64.571fall78.6902.mot
datacolumns 19
datarows 21
range 7.71163500000000 7.74497300000000
endheader
time	ground_force1_vx	ground_force1_vy	ground_force1_vz	ground_force1_px	ground_force1_py	ground_force1_pz	ground_force2_vx	ground_force2_vy	ground_force2_vz	ground_force2_px	ground_force2_py	ground_force2_pz	ground_torque1_x	ground_torque1_y	ground_torque1_z	ground_torque2_x	ground_torque2_y	ground_torque2_z	
7.71163500000000	4.76456100000000	699.19677899999999	39.16351100000000	0.21687400000000	0.00000000000000	0.10586400000000	0.00000000000000	0.00000000000000	0.00000000000000	0.00000000000000	0.00000000000000	0.00000000000000	0.00000000000000	16.04091000000000	0.00000000000000	0.00000000000000	0.00000000000000	0.00000000000000	
7.71330300000000	4.31630200000000	700.21837400000004	39.17746000000000	0.21586100000000	0.00000000000000	0.10588700000000	0.00000000000000	0.00000000000000	0.00000000000000	0.00000000000000	0.00000000000000	0.00000000000000	0.00000000000000	16.10273800000000	0.00000000000000	0.00000000000000	0.00000000000000	0.00000000000000	
7.71497700000000	3.85888400000000	701.25931700000001	39.19437100000000	0.21483300000000	0.00000000000000	0.10591100000000	0.00000000000000	0.00000000000000	0.00000000000000	0.00000000000000	0.00000000000000	0.00000000000000	0.00000000000000	16.16784300000000	0.00000000000000	0.00000000000000	0.00000000000000	0.00000000000000	
7.71664000000000	3.39213000000000	702.31886499999996	39.21420200000000	0.21378900000000	0.00000000000000	0.10593600000000	0.00000000000000	0.00000000000000	0.00000000000000	0.00000000000000	0.00000000000000	0.00000000000000	0.00000000000000	16.23624300000000	0.00000000000000	0.00000000000000	0.00000000000000	0.00000000000000	
7.71830500000000	2.91589000000000	703.39637300000004	39.23691800000000	0.21273200000000	0.00000000000000	0.10596200000000	0.00000000000000	0.00000000000000	0.00000000000000	0.00000000000000	0.00000000000000	0.00000000000000	0.00000000000000	16.30795600000000	0.00000000000000	0.00000000000000	0.00000000000000	0.00000000000000	
7.71996900000000	2.43004200000000	704.49129700000003	39.26248700000000	0.21166200000000	0.00000000000000	0.10598900000000	0.00000000000000	0.00000000000000	0.00000000000000	0.00000000000000	0.00000000000000	0.00000000000000	0.00000000000000	16.38299400000000	0.00000000000000	0.00000000000000	0.00000000000000	0.00000000000000	
7.72163600000000	1.93449000000000	705.60319100000004	39.29088200000000	0.21058000000000	0.00000000000000	0.10601600000000	0.00000000000000	0.00000000000000	0.00000000000000	0.00000000000000	0.00000000000000	0.00000000000000	0.00000000000000	16.46137100000000	0.00000000000000	0.00000000000000	0.00000000000000	0.00000000000000	
7.72330800000000	1.42916300000000	706.73171100000002	39.32207900000000	0.20948700000000	0.00000000000000	0.10604500000000	0.00000000000000	0.00000000000000	0.00000000000000	0.00000000000000	0.00000000000000	0.00000000000000	0.00000000000000	16.54309700000000	0.00000000000000	0.00000000000000	0.00000000000000	0.00000000000000	
7.72497600000000	0.91402000000000	707.87661400000002	39.35606300000000	0.20838400000000	0.00000000000000	0.10607300000000	0.00000000000000	0.00000000000000	0.00000000000000	0.00000000000000	0.00000000000000	0.00000000000000	0.00000000000000	16.62817600000000	0.00000000000000	0.00000000000000	0.00000000000000	0.00000000000000	
7.72663500000000	0.38904100000000	709.03775199999995	39.39282100000000	0.20727300000000	0.00000000000000	0.10610300000000	0.00000000000000	0.00000000000000	0.00000000000000	0.00000000000000	0.00000000000000	0.00000000000000	0.00000000000000	16.71661100000000	0.00000000000000	0.00000000000000	0.00000000000000	0.00000000000000	
7.72830400000000	-0.14576200000000	710.21507899999995	39.43234300000000	0.20615400000000	0.00000000000000	0.10613300000000	0.00000000000000	0.00000000000000	0.00000000000000	0.00000000000000	0.00000000000000	0.00000000000000	0.00000000000000	16.80839900000000	0.00000000000000	0.00000000000000	0.00000000000000	0.00000000000000	
7.72997400000000	-0.69035700000000	711.40863800000000	39.47463000000000	0.20503000000000	0.00000000000000	0.10616300000000	0.00000000000000	0.00000000000000	0.00000000000000	0.00000000000000	0.00000000000000	0.00000000000000	0.00000000000000	16.90353300000000	0.00000000000000	0.00000000000000	0.00000000000000	0.00000000000000	
7.73163900000000	-1.24468200000000	712.61856999999998	39.51968300000000	0.20390100000000	0.00000000000000	0.10619400000000	0.00000000000000	0.00000000000000	0.00000000000000	0.00000000000000	0.00000000000000	0.00000000000000	0.00000000000000	17.00200000000000	0.00000000000000	0.00000000000000	0.00000000000000	0.00000000000000	
7.73330100000000	-1.80865400000000	713.84509800000001	39.56751200000000	0.20276800000000	0.00000000000000	0.10622600000000	0.00000000000000	0.00000000000000	0.00000000000000	0.00000000000000	0.00000000000000	0.00000000000000	0.00000000000000	17.10378100000000	0.00000000000000	0.00000000000000	0.00000000000000	0.00000000000000	
7.73497400000000	-2.38216300000000	715.08853399999998	39.61813000000000	0.20163400000000	0.00000000000000	0.10625700000000	0.00000000000000	0.00000000000000	0.00000000000000	0.00000000000000	0.00000000000000	0.00000000000000	0.00000000000000	17.20885100000000	0.00000000000000	0.00000000000000	0.00000000000000	0.00000000000000	
7.73664100000000	-2.96507700000000	716.34926700000005	39.67155800000000	0.20049800000000	0.00000000000000	0.10628900000000	0.00000000000000	0.00000000000000	0.00000000000000	0.00000000000000	0.00000000000000	0.00000000000000	0.00000000000000	17.31717800000000	0.00000000000000	0.00000000000000	0.00000000000000	0.00000000000000	
7.73830300000000	-3.55723700000000	717.62776099999996	39.72782300000000	0.19936300000000	0.00000000000000	0.10632200000000	0.00000000000000	0.00000000000000	0.00000000000000	0.00000000000000	0.00000000000000	0.00000000000000	0.00000000000000	17.42872300000000	0.00000000000000	0.00000000000000	0.00000000000000	0.00000000000000	
7.73996800000000	-4.15846600000000	718.92454999999995	39.78695700000000	0.19822900000000	0.00000000000000	0.10635400000000	0.00000000000000	0.00000000000000	0.00000000000000	0.00000000000000	0.00000000000000	0.00000000000000	0.00000000000000	17.54344200000000	0.00000000000000	0.00000000000000	0.00000000000000	0.00000000000000	
7.74163500000000	-4.76856100000000	720.24022800000000	39.84900000000000	0.19709700000000	0.00000000000000	0.10638600000000	0.00000000000000	0.00000000000000	0.00000000000000	0.00000000000000	0.00000000000000	0.00000000000000	0.00000000000000	17.66128000000000	0.00000000000000	0.00000000000000	0.00000000000000	0.00000000000000	
7.74330100000000	-5.38729900000000	721.57544600000006	39.91399700000000	0.19597000000000	0.00000000000000	0.10641900000000	0.00000000000000	0.00000000000000	0.00000000000000	0.00000000000000	0.00000000000000	0.00000000000000	0.00000000000000	17.78217600000000	0.00000000000000	0.00000000000000	0.00000000000000	0.00000000000000	
7.74497300000000	-6.01443600000000	722.93090500000005	39.98200200000000	0.19484700000000	0.00000000000000	0.10645100000000	0.00000000000000	0.00000000000000	0.00000000000000	0.00000000000000	0.00000000000000	0.00000000000000	0.00000000000000	17.90606100000000	0.00000000000000	0.00000000000000	0.00000000000000	0.00000000000000	
